<svg xmlns="http://www.w3.org/2000/svg" width="1400" height="760" viewBox="0 0 1400 760"><rect width="1400" height="760" fill="#f7f5ef"/><rect x="40" y="36" width="1320" height="130" rx="28" fill="#0b5c7a"/><text x="88" y="98" fill="#f7f5ef" font-family="Arial, sans-serif" font-size="42" font-weight="700">Scenario Comparison</text><text x="88" y="138" fill="#d7eaef" font-family="Arial, sans-serif" font-size="22">Normal operations vs labor shortage</text><text x="90" y="210" fill="#12343b" font-family="Arial, sans-serif" font-size="28" font-weight="700">KPI delta snapshot</text><text x="90" y="238" fill="#355159" font-family="Arial, sans-serif" font-size="22">Wait Time</text><rect x="180" y="212" width="520" height="36" rx="18" fill="#dde7ea"/><rect x="180" y="212" width="28" height="36" rx="18" fill="#f28f3b"/><text x="730" y="238" fill="#12343b" font-family="Arial, sans-serif" font-size="24" font-weight="700">-1.57</text><text x="90" y="348" fill="#355159" font-family="Arial, sans-serif" font-size="22">Cycle Time</text><rect x="180" y="322" width="520" height="36" rx="18" fill="#dde7ea"/><rect x="180" y="322" width="74" height="36" rx="18" fill="#0b5c7a"/><text x="730" y="348" fill="#12343b" font-family="Arial, sans-serif" font-size="24" font-weight="700">4.13</text><text x="90" y="458" fill="#355159" font-family="Arial, sans-serif" font-size="22">Service Level</text><rect x="180" y="432" width="520" height="36" rx="18" fill="#dde7ea"/><rect x="180" y="432" width="48" height="36" rx="18" fill="#7a8b5a"/><text x="730" y="458" fill="#12343b" font-family="Arial, sans-serif" font-size="24" font-weight="700">-2.70</text><rect x="820" y="220" width="470" height="340" rx="24" fill="#ffffff"/><text x="860" y="280" fill="#12343b" font-family="Arial, sans-serif" font-size="30" font-weight="700">What changed</text><text x="860" y="330" fill="#355159" font-family="Arial, sans-serif" font-size="20">Compare baseline against stressed scenarios with KPI deltas, stage bottleneck shifts, and recommendation changes.</text><text x="860" y="420" fill="#5a6a70" font-family="Arial, sans-serif" font-size="18">Use the Streamlit comparison page for the full side-by-side analysis.</text></svg>